<svg id="svg" version="1.1" xmlns="http://www.w3.org/2000/svg" xmlns:xlink="http://www.w3.org/1999/xlink" width="400" height="400" viewBox="0, 0, 400,400"><g id="svgg"><path id="path0" d="M254.688 120.585 C 252.161 120.996,250.201 122.457,248.990 124.830 C 248.157 126.462,247.659 164.065,247.944 203.799 L 248.131 229.942 260.034 248.174 C 266.581 258.202,272.111 266.589,272.323 266.812 C 273.524 268.075,273.335 126.700,272.134 124.531 C 271.422 123.247,269.417 121.365,268.281 120.917 C 267.195 120.487,256.841 120.235,254.688 120.585 M132.750 125.942 C 129.948 126.210,128.156 127.103,126.470 129.072 L 125.388 130.337 125.173 157.903 C 124.768 209.657,125.069 287.811,125.676 288.906 C 126.254 289.948,127.787 291.445,129.219 292.366 C 130.381 293.113,142.672 293.258,144.741 292.549 C 145.992 292.120,148.250 289.876,148.802 288.513 C 149.265 287.371,149.599 259.088,149.735 209.535 C 149.794 188.167,149.944 170.746,150.068 170.823 C 150.494 171.087,171.472 201.945,209.524 258.281 C 230.853 289.859,229.406 287.841,268.084 340.000 C 292.219 372.549,295.267 376.563,295.843 376.563 C 296.114 376.563,297.449 375.895,298.808 375.078 C 300.168 374.262,301.886 373.242,302.626 372.813 C 308.018 369.682,308.944 368.597,307.538 367.051 C 307.215 366.697,283.472 330.828,254.776 287.344 C 144.814 120.714,149.522 127.764,147.513 126.725 C 145.808 125.844,138.075 125.433,132.750 125.942 " stroke="none" fill="#fbfbfb" fill-rule="evenodd"></path><path id="path1" d="M182.813 0.479 C 64.485 12.252,-17.026 118.063,2.669 234.327 C 12.285 291.091,47.182 341.893,97.188 371.924 C 155.539 406.968,229.102 409.632,290.313 378.917 C 292.461 377.839,294.474 376.869,294.785 376.762 C 295.269 376.596,295.292 376.486,294.941 376.010 C 294.716 375.703,292.622 372.925,290.289 369.835 C 286.062 364.239,259.281 328.162,239.956 302.031 C 232.338 291.731,224.702 280.754,209.524 258.281 C 171.472 201.945,150.494 171.087,150.068 170.823 C 149.944 170.746,149.794 188.167,149.735 209.535 C 149.599 259.088,149.265 287.371,148.802 288.513 C 148.250 289.876,145.992 292.120,144.741 292.549 C 142.672 293.258,130.381 293.113,129.219 292.366 C 127.787 291.445,126.254 289.948,125.676 288.906 C 125.069 287.811,124.768 209.657,125.173 157.903 L 125.388 130.337 126.470 129.072 C 128.394 126.825,129.819 126.224,134.091 125.860 C 138.591 125.476,146.009 125.948,147.487 126.712 C 149.527 127.767,144.639 120.450,254.776 287.344 C 283.472 330.828,307.201 366.688,307.507 367.031 C 307.812 367.375,308.112 367.900,308.172 368.198 C 308.259 368.631,309.063 368.199,312.188 366.044 C 378.139 320.543,410.759 243.435,397.183 165.128 C 383.148 84.170,318.586 18.491,238.281 3.477 C 221.928 0.419,196.971 -0.929,182.813 0.479 M268.281 120.917 C 269.417 121.365,271.422 123.247,272.134 124.531 C 273.335 126.700,273.524 268.075,272.323 266.812 C 272.111 266.589,266.581 258.202,260.034 248.174 L 248.131 229.942 247.944 203.799 C 247.659 164.065,248.157 126.462,248.990 124.830 C 250.201 122.457,252.161 120.996,254.688 120.585 C 256.841 120.235,267.195 120.487,268.281 120.917 " stroke="none" fill="#040404" fill-rule="evenodd"></path></g></svg>