<?xml version="1.0" encoding="UTF-8"?>
<!DOCTYPE svg PUBLIC "-//W3C//DTD SVG 1.1//EN" "http://www.w3.org/Graphics/SVG/1.1/DTD/svg11.dtd">
<svg xmlns="http://www.w3.org/2000/svg" version="1.1" width="224px" height="224px" style="shape-rendering:geometricPrecision; text-rendering:geometricPrecision; image-rendering:optimizeQuality; fill-rule:evenodd; clip-rule:evenodd" xmlns:xlink="http://www.w3.org/1999/xlink">
<g><path style="opacity:0.999" fill="#181617" d="M 134.5,194.5 C 134.217,193.711 133.717,193.044 133,192.5C 132.667,181.5 132.333,170.5 132,159.5C 130.753,156.671 129.253,154.005 127.5,151.5C 155.968,147.519 168.468,131.186 165,102.5C 163.338,96.3413 160.505,90.8413 156.5,86C 159.247,78.5447 158.914,71.2114 155.5,64C 151.684,63.5992 148.017,64.2658 144.5,66C 140.239,68.0467 136.072,70.2133 132,72.5C 118.333,69.8333 104.667,69.8333 91,72.5C 84.3657,68.2673 77.199,65.2673 69.5,63.5C 68.5581,63.6082 67.7247,63.9415 67,64.5C 64.0025,71.6248 63.8358,78.7915 66.5,86C 55.7593,100.966 54.5926,116.799 63,133.5C 70.9377,144.556 81.771,150.556 95.5,151.5C 93.1024,155.129 91.1024,158.962 89.5,163C 83.6379,165.31 77.9713,164.976 72.5,162C 68.8115,157.314 64.8115,152.981 60.5,149C 58.3611,147.596 56.0278,146.763 53.5,146.5C 51.6814,146.342 50.3481,147.009 49.5,148.5C 52.7204,151.375 55.8871,154.375 59,157.5C 64.2601,172.715 74.7601,178.382 90.5,174.5C 90.6662,180.509 90.4995,186.509 90,192.5C 89.2828,193.044 88.7828,193.711 88.5,194.5C 63.1674,187.347 45.0007,171.68 34,147.5C 20.2583,110.308 27.425,77.8076 55.5,50C 92.8419,21.3344 130.175,21.3344 167.5,50C 198.491,81.7888 203.991,117.622 184,157.5C 174.241,172.927 161.075,184.427 144.5,192C 141.382,193.727 138.049,194.561 134.5,194.5 Z"/></g>
<g><path style="opacity:0.994" fill="#fcfcfc" d="M 134.5,194.5 C 119.167,197.167 103.833,197.167 88.5,194.5C 88.7828,193.711 89.2828,193.044 90,192.5C 90.4995,186.509 90.6662,180.509 90.5,174.5C 74.7601,178.382 64.2601,172.715 59,157.5C 55.8871,154.375 52.7204,151.375 49.5,148.5C 50.3481,147.009 51.6814,146.342 53.5,146.5C 56.0278,146.763 58.3611,147.596 60.5,149C 64.8115,152.981 68.8115,157.314 72.5,162C 77.9713,164.976 83.6379,165.31 89.5,163C 91.1024,158.962 93.1024,155.129 95.5,151.5C 81.771,150.556 70.9377,144.556 63,133.5C 54.5926,116.799 55.7593,100.966 66.5,86C 63.8358,78.7915 64.0025,71.6248 67,64.5C 67.7247,63.9415 68.5581,63.6082 69.5,63.5C 77.199,65.2673 84.3657,68.2673 91,72.5C 104.667,69.8333 118.333,69.8333 132,72.5C 136.072,70.2133 140.239,68.0467 144.5,66C 148.017,64.2658 151.684,63.5992 155.5,64C 158.914,71.2114 159.247,78.5447 156.5,86C 160.505,90.8413 163.338,96.3413 165,102.5C 168.468,131.186 155.968,147.519 127.5,151.5C 129.253,154.005 130.753,156.671 132,159.5C 132.333,170.5 132.667,181.5 133,192.5C 133.717,193.044 134.217,193.711 134.5,194.5 Z"/></g>
</svg>
